<?xml version="1.0" encoding="UTF-8" standalone="no"?>
<!-- Created with Inkscape (http://www.inkscape.org/) -->

<svg
   xmlns:dc="http://purl.org/dc/elements/1.1/"
   xmlns:cc="http://creativecommons.org/ns#"
   xmlns:rdf="http://www.w3.org/1999/02/22-rdf-syntax-ns#"
   xmlns:svg="http://www.w3.org/2000/svg"
   xmlns="http://www.w3.org/2000/svg"
   xmlns:sodipodi="http://sodipodi.sourceforge.net/DTD/sodipodi-0.dtd"
   xmlns:inkscape="http://www.inkscape.org/namespaces/inkscape"
   width="102.88342mm"
   height="48.531731mm"
   viewBox="0 0 102.88342 48.531731"
   version="1.1"
   id="svg8"
   inkscape:version="0.92.2 2405546, 2018-03-11"
   sodipodi:docname="standards.svg"
   inkscape:export-filename="/media/adrian/Intern4Linux/seafile-sync/Seafile/Vorträge/2018-schul-frei/img/standards.png"
   inkscape:export-xdpi="395.14352"
   inkscape:export-ydpi="395.14352">
  <defs
     id="defs2">
    <inkscape:path-effect
       effect="spiro"
       id="path-effect857"
       is_visible="true" />
    <inkscape:path-effect
       effect="spiro"
       id="path-effect846"
       is_visible="true" />
  </defs>
  <sodipodi:namedview
     id="base"
     pagecolor="#ffffff"
     bordercolor="#666666"
     borderopacity="1.0"
     inkscape:pageopacity="0.0"
     inkscape:pageshadow="2"
     inkscape:zoom="1.979899"
     inkscape:cx="182.66764"
     inkscape:cy="39.034938"
     inkscape:document-units="mm"
     inkscape:current-layer="layer1"
     showgrid="false"
     fit-margin-top="0"
     fit-margin-left="0"
     fit-margin-right="0"
     fit-margin-bottom="0"
     inkscape:window-width="1920"
     inkscape:window-height="1027"
     inkscape:window-x="0"
     inkscape:window-y="27"
     inkscape:window-maximized="1" />
  <metadata
     id="metadata5">
    <rdf:RDF>
      <cc:Work
         rdf:about="">
        <dc:format>image/svg+xml</dc:format>
        <dc:type
           rdf:resource="http://purl.org/dc/dcmitype/StillImage" />
        <dc:title />
      </cc:Work>
    </rdf:RDF>
  </metadata>
  <g
     inkscape:label="Ebene 1"
     inkscape:groupmode="layer"
     id="layer1"
     transform="translate(-39.856426,-96.973529)">
    <g
       id="g872"
       transform="matrix(0.14421919,0.10668721,-0.10668721,0.14421919,157.37122,108.62209)">
      <path
         style="fill:#94c7fc;stroke-width:0.35277778"
         d="m -210.77884,198.42818 v -58.03194 h -18.34444 -18.34445 v -19.05 -19.05 h 18.34445 18.34444 v -4.056944 -4.056945 h 44.53959 44.53958 l 16.66736,16.670129 16.667359,16.67013 v 64.46876 64.46876 h -61.206939 -61.20695 z"
         id="path878"
         inkscape:connector-curvature="0" />
      <path
         style="fill:#7cb9f6;stroke-width:0.35277778"
         d="m -210.77884,198.42818 v -58.03194 h 39.15833 39.15834 v -19.05 -19.05 h -39.15834 -39.15833 v -4.056944 -4.056945 h 44.62639 44.62639 v 16.756949 16.75694 h 16.58055 16.580559 v 64.38194 64.38195 h -61.206939 -61.20695 z m 18.52083,-65.12676 c -2.40046,-0.54634 -3.38328,-1.06085 -3.2148,-1.68296 0.085,-0.31396 0.34543,-1.41426 0.57868,-2.44511 0.34429,-1.5216 0.53264,-1.82795 1.00094,-1.62805 3.40401,1.45303 6.1272,1.62468 7.58483,0.47811 1.90842,-1.50116 1.04111,-3.16993 -2.48196,-4.77544 -3.48346,-1.58747 -4.85675,-2.68016 -5.7892,-4.60634 -0.62106,-1.28296 -0.73012,-1.97138 -0.56529,-3.56841 0.52592,-5.09568 5.73595,-7.853 11.86942,-6.28167 1.24759,0.31961 2.32547,0.63824 2.39528,0.70805 0.11933,0.11933 -0.92898,4.50753 -1.1246,4.70752 -0.0499,0.0511 -0.68374,-0.15492 -1.40844,-0.45772 -0.80971,-0.33832 -2.07464,-0.51009 -3.28144,-0.4456 -1.65777,0.0886 -2.07398,0.25297 -2.67088,1.05489 -0.67927,0.91257 -0.68285,0.98694 -0.0909,1.89039 0.3668,0.55981 1.67354,1.42897 3.22857,2.14744 2.86152,1.3221 4.83821,2.86557 5.62946,4.39568 0.76427,1.47793 0.65684,4.99935 -0.20399,6.68671 -1.70175,3.3357 -6.52431,4.94489 -11.4557,3.82251 z m 15.61042,0.14996 -2.02847,-0.14591 v -12.13161 -12.13161 l 1.60131,-0.24013 c 0.88073,-0.13208 3.53979,-0.17158 5.90903,-0.0878 4.80723,0.17 6.4972,0.6972 8.84621,2.75966 2.23894,1.96581 3.15531,4.20927 3.32827,8.14821 0.30959,7.05058 -2.51016,11.57432 -8.21954,13.18667 -1.9872,0.56119 -6.39502,0.8613 -9.43681,0.64252 z m 8.55486,-5.3638 c 0.6791,-0.34681 1.70379,-1.29456 2.27709,-2.10612 0.93688,-1.32623 1.05584,-1.80501 1.17556,-4.73108 0.11908,-2.91059 0.0432,-3.42373 -0.71605,-4.84303 -1.17161,-2.19008 -2.95687,-3.16165 -5.8234,-3.1692 l -2.20486,-0.006 v 7.70231 c 0,4.23628 0.11906,7.82268 0.26458,7.96979 0.40894,0.41339 3.64902,-0.1131 5.02708,-0.81687 z m -43.74444,-6.87363 v -12.12674 l 1.10243,-0.22048 c 2.22401,-0.44481 8.60377,-0.23613 10.28398,0.33638 3.19969,1.09024 5.11761,4.38379 4.73396,8.12936 -0.4788,4.67445 -3.66577,7.22837 -9.15084,7.33318 l -1.67352,0.032 -0.002,4.32153 -0.002,4.32154 h -2.64583 -2.64583 z m 8.62695,-1.42574 c 1.68507,-0.70407 2.44578,-1.99659 2.20993,-3.75492 -0.10456,-0.77962 -0.38197,-1.64867 -0.61646,-1.93121 -0.60384,-0.72758 -2.93258,-1.3573 -4.01485,-1.08566 -0.90699,0.22764 -0.91391,0.25601 -0.91391,3.75043 v 3.52106 h 1.06967 c 0.58831,0 1.60784,-0.22487 2.26562,-0.4997 z"
         id="path876"
         inkscape:connector-curvature="0" />
      <path
         style="fill:#251e62;stroke-width:0.35277778"
         d="m -210.77884,198.42818 v -58.03194 h 39.15833 39.15834 v -19.05 -19.05 h -39.15834 -39.15833 v -4.058301 -4.058301 l 44.5382,0.08955 44.53819,0.08955 0.0917,16.668752 0.0917,16.66875 h 16.5771 16.577099 v 64.38194 64.38195 h -61.206939 -61.20695 z m 87.44269,30.71519 c 6.52907,-1.76141 10.38189,-5.9286 10.87057,-11.75753 0.14515,-1.73137 0.0337,-2.99417 -0.39415,-4.46593 -1.3914,-4.78622 -4.14469,-7.22214 -11.42488,-10.10792 -2.07231,-0.82144 -4.37529,-1.87567 -5.11772,-2.34275 -3.23144,-2.03294 -2.84151,-6.21292 0.72119,-7.73097 2.3228,-0.98973 7.85495,-0.34247 11.06354,1.29443 l 1.30495,0.66573 1.05122,-3.77957 c 0.57817,-2.07876 0.93219,-3.91147 0.78671,-4.07268 -0.61493,-0.68142 -5.15486,-2.01229 -8.07601,-2.36747 -7.2546,-0.88207 -13.59028,1.29426 -17.05385,5.85808 -1.73084,2.28066 -2.49897,4.67487 -2.49964,7.79125 -0.001,5.62596 3.59308,9.42416 12.00121,12.68205 5.3258,2.06357 6.98945,3.56676 6.98945,6.31532 0,1.8276 -0.91671,3.25009 -2.67091,4.14459 -2.57777,1.31443 -9.79082,0.51252 -13.80352,-1.53461 -0.77507,-0.39541 -1.48829,-0.63986 -1.58493,-0.54322 -0.0966,0.0966 -0.62649,1.85603 -1.17746,3.90976 l -1.00176,3.73407 1.31046,0.66854 c 1.66142,0.84759 4.59826,1.70422 7.30018,2.12935 2.73169,0.42981 8.99196,0.16057 11.40535,-0.49052 z m -52.51769,-11.53519 V 206.2729 l 2.73403,0.17952 c 3.41966,0.22455 8.85517,-0.22591 11.78798,-0.97691 5.33304,-1.36564 10.14663,-4.70231 12.552,-8.70076 1.76191,-2.92883 2.68433,-7.10893 2.47326,-11.20803 -0.47768,-9.27698 -5.86373,-15.00961 -15.96532,-16.99265 -4.30591,-0.84529 -20.49455,-0.43301 -23.9007,0.60869 -0.5816,0.17786 -0.61736,1.91429 -0.61736,29.97475 v 29.78595 h 5.46806 5.46805 z m 0.61736,-19.95234 c -0.57003,-0.14897 -0.61736,-0.94445 -0.61736,-10.3771 0,-9.40201 0.0492,-10.23501 0.61736,-10.4575 0.33955,-0.13296 2.52236,-0.24655 4.8507,-0.25242 6.65926,-0.0168 9.92416,1.389 12.01346,5.17275 0.93103,1.68612 1.03119,2.18206 1.01882,5.04495 -0.0158,3.65621 -0.47924,5.00525 -2.48048,7.22039 -1.55419,1.72029 -3.78915,2.93639 -6.42403,3.49545 -1.80467,0.38291 -7.71397,0.48393 -8.97847,0.15348 z m -18.34444,-64.87957 c -0.92163,-0.2834 -1.6757,-0.64274 -1.6757,-0.79854 0,-0.15579 0.18227,-1.19083 0.40503,-2.30007 0.29628,-1.47525 0.53661,-1.96631 0.89503,-1.82877 5.03902,1.93365 8.58581,1.37349 8.57232,-1.35385 -0.008,-1.63688 -0.36954,-1.98056 -3.91594,-3.72348 -2.25886,-1.11014 -3.59179,-2.01776 -4.34317,-2.95737 -1,-1.2505 -1.0841,-1.56734 -1.0841,-4.08441 0,-2.42809 0.10606,-2.86779 0.96259,-3.99076 1.5016,-1.9687 3.16243,-2.81384 5.91695,-3.01092 2.78193,-0.19905 5.28292,0.10544 6.16522,0.7506 0.55871,0.40854 0.57391,0.64067 0.16229,2.47997 -0.40437,1.80692 -0.53432,2.00455 -1.18614,1.80389 -4.54437,-1.39898 -7.25841,-0.80577 -7.25841,1.58646 0,1.19521 0.71068,1.83764 3.36096,3.03822 3.28844,1.48966 4.95725,2.78234 5.77638,4.47444 1.8667,3.8561 -0.0754,8.49512 -4.15961,9.93613 -1.92999,0.68094 -6.34517,0.66987 -8.5937,-0.0215 z m 15.69861,0.33506 -0.79375,-0.17249 v -11.8046 c 0,-10.91551 0.0465,-11.82273 0.61736,-12.04548 0.33955,-0.13249 2.76049,-0.24622 5.37986,-0.25274 5.72282,-0.0142 7.59365,0.50502 10.17215,2.82331 2.96342,2.66437 4.18347,7.11755 3.24998,11.86238 -0.87693,4.45738 -3.12188,7.29605 -6.93778,8.77265 -1.69008,0.65399 -2.89201,0.82009 -6.48435,0.89613 -2.42535,0.0513 -4.76691,0.0157 -5.20347,-0.0792 z m 10.45202,-5.16829 c 2.11959,-1.40268 3.03576,-3.61408 3.02533,-7.30236 -0.006,-2.08558 -0.18308,-3.32085 -0.58191,-4.05694 -1.37212,-2.53243 -3.92715,-3.86468 -6.98641,-3.64288 l -1.5875,0.1151 -0.0949,8.07358 -0.0949,8.07358 2.47581,-0.17714 c 1.86659,-0.13356 2.81262,-0.40004 3.84456,-1.08294 z m -44.32338,-6.86138 0.0929,-11.90625 3.175,-0.31883 c 8.35602,-0.83909 12.59662,1.67655 12.59285,7.47044 -0.003,5.1295 -3.41772,8.19422 -9.1291,8.19422 h -1.87625 v 4.23333 4.23334 h -2.47414 -2.47414 z m 9.09578,-1.32657 c 1.32817,-0.68682 1.75683,-1.52482 1.75683,-3.43442 0,-2.49743 -1.47714,-3.62023 -4.44335,-3.37745 l -1.37748,0.11274 -0.10054,3.61597 -0.10054,3.61598 h 1.61737 c 0.88954,0 2.08101,-0.23977 2.64771,-0.53282 z"
         id="path874"
         inkscape:connector-curvature="0" />
    </g>
    <g
       id="g826"
       transform="matrix(0.09630443,-0.07385812,0.07385812,0.09630443,39.382366,114.03397)">
      <path
         style="fill:#989697;stroke-width:0.26458332"
         d="m -11.189681,240.104 v -14.81667 h -29.633332 -29.633332 v -63.49999 -63.5 h 29.633332 29.633332 V 59.658175 21.02901 h 62.771895 62.771896 l 26.1281,26.127103 26.1281,26.1271 v 90.818727 90.81873 H 77.710314 -11.189681 Z m 174.624991,-76.2 V 76.062341 H 87.235314 11.035318 v -4.7625 -4.7625 h 50.270831 50.270831 v -6.35 -6.349999 H 61.306149 11.035318 v -4.7625 -4.7625 H 61.306149 111.57698 V 34.258176 24.20401 H 51.781149 -8.0146814 V 61.245675 98.28734 h 9.5249995 9.5249999 v -4.7625 -4.7625 h 66.674996 66.674996 v 4.7625 4.7625 H 100.46448 56.543649 v 6.35 6.35 h 43.920831 43.92083 v 4.7625 4.7625 H 100.46448 56.543649 v 6.35 6.35 h 43.920831 43.92083 v 4.7625 4.7625 H 100.46448 56.543649 v 6.35 6.35 h 43.920831 43.92083 v 4.7625 4.7625 H 100.46448 56.543649 v 6.35 6.35 h 43.920831 43.92083 v 4.7625 4.7625 H 100.46448 56.543649 v 6.34999 6.35 h 43.920831 43.92083 v 4.7625 4.7625 H 100.46448 56.543649 v 6.35 6.35 h 43.920831 43.92083 v 4.7625 4.7625 H 77.710314 11.035318 v -3.175 -3.175 H 1.5103181 -8.0146814 v 13.22917 13.22917 H 77.710314 163.43531 Z M 47.018649,177.09632 V 138.4303 l -1.363908,0.16153 c -1.609664,0.19064 -2.096254,0.59077 -3.887039,3.19633 -2.818876,4.10141 -6.595043,11.05459 -21.997296,40.50438 -4.109801,7.85813 -8.120146,15.50789 -8.911878,16.99948 l -1.4395128,2.71198 -9.37830661,0.0397 c -5.15806769,0.0218 -9.52713469,0.0516 -9.70903579,0.0661 -0.3898108,0.0312 -0.6108458,-5.001 -0.8802108,-20.03926 l -0.174588,-9.74697 -0.590171,1.01572 c -0.324596,0.55865 -3.187541,5.59963 -6.362102,11.20218 -3.174561,5.60255 -6.690764,11.7938 -7.813786,13.75833 l -2.041855,3.57188 -8.762653,0.0697 -8.762653,0.0697 V 170.25757 138.504 h -4.233333 -4.233333 v -6.35 -6.35 h 19.049999 19.049999 v 6.35 6.35 h -4.753814 -4.753813 l 0.160155,10.51719 c 0.08808,5.78445 0.182054,10.54561 0.208817,10.58035 0.04201,0.0545 3.583384,-7.2404 13.998899,-28.8366 L -8.170185,125.804 H 0.90340103 9.9769844 v 17.64771 c 0,10.54578 0.096412,17.54656 0.2395776,17.39636 0.406717,-0.42672 9.813017,-16.53416 10.903098,-18.67058 0.565486,-1.10828 1.028157,-2.26688 1.028157,-2.57465 0,-0.66008 -0.297362,-0.74297 -3.505729,-0.97727 l -2.315104,-0.16907 v -6.32625 -6.32625 h 15.345833 15.345832 v -8.99583 -8.99583 H -6.9563481 -60.931345 v 53.975 53.97499 H -6.9563481 47.018649 Z M 160.4672,72.654322 162.39389,72.490466 138.76727,48.744113 C 125.77263,35.683619 115.0532,24.99776 114.94632,24.99776 c -0.10689,0 -0.19434,10.775156 -0.19434,23.94479 v 23.944791 l 21.89427,-0.03458 c 12.04185,-0.01902 22.76128,-0.108318 23.82095,-0.198439 z"
         id="path830"
         inkscape:connector-curvature="0" />
      <path
         style="fill:#285493;stroke-width:0.26458332"
         d="m -70.456345,161.78734 v -63.5 H -6.9563481 56.543649 v 63.5 63.49999 H -6.9563481 -70.456345 Z M 47.018649,177.13317 V 138.504 h -1.574763 c -1.471091,0 -1.638548,0.0653 -2.543651,0.99219 -2.059151,2.10868 -5.076182,7.33172 -13.869648,24.01094 -0.69048,1.30969 -1.851239,3.51234 -2.579462,4.89479 -0.728221,1.38245 -2.454154,4.65667 -3.835406,7.27604 -1.381249,2.61938 -3.377421,6.42938 -4.435937,8.46667 -1.058516,2.03729 -2.961743,5.66869 -4.229396,8.06979 -1.267651,2.40109 -2.876902,5.45188 -3.576111,6.77952 l -1.2712887,2.4139 -2.9364383,0.16136 c -1.6150404,0.0887 -5.92808983,0.23939 -9.5845519,0.33477 l -6.6481111,0.17342 -0.196292,-12.43067 c -0.107958,-6.83687 -0.271465,-13.66295 -0.363344,-15.16907 l -0.167055,-2.73841 -2.35707,4.08603 c -1.296387,2.24731 -4.619932,8.01509 -7.385655,12.81727 -2.765724,4.80219 -5.629378,9.77305 -6.363679,11.04636 l -1.335087,2.3151 h -8.411025 -8.411024 v -31.75 -31.75 h -4.233333 -4.233333 v -6.35 -6.35 h 19.049999 19.049999 v 6.35 6.35 h -4.7625 -4.7625 l 0.004,10.78177 c 0.0021,5.92998 0.101418,10.93524 0.220417,11.1228 0.140951,0.22216 2.297054,-3.9739 6.185884,-12.03854 3.283235,-6.80876 7.075892,-14.67152 8.428127,-17.4728 l 2.4586084,-5.09323 h 8.8121327 8.8121327 l 0.067969,18.19011 0.06797,18.1901 2.087481,-3.57187 c 1.148111,-1.96453 2.643478,-4.52438 3.323031,-5.68854 0.679556,-1.16417 2.760475,-4.71217 4.624261,-7.88444 1.863788,-3.17228 3.331733,-5.82475 3.2621,-5.89439 -0.181059,-0.18106 -4.331887,-0.63658 -5.822394,-0.63896 l -1.256768,-0.002 v -6.35 -6.35 h 15.345833 15.345832 v -8.99583 -8.99583 H -6.9563481 -60.931345 v 53.975 53.97499 H -6.9563481 47.018649 Z"
         id="path828"
         inkscape:connector-curvature="0" />
    </g>
    <flowRoot
       xml:space="preserve"
       id="flowRoot832"
       style="line-height:1.25;letter-spacing:0px;word-spacing:0px;opacity:1;vector-effect:none;fill:#ffffff;fill-opacity:1;stroke:#000000;stroke-width:2.26771665;stroke-linecap:butt;stroke-linejoin:miter;stroke-miterlimit:4;stroke-dasharray:none;stroke-dashoffset:0;stroke-opacity:1"
       transform="matrix(0.26458333,0,0,0.26458333,-6.8153733,-58.799295)"><flowRegion
         id="flowRegion834"
         style="fill:#ffffff;fill-opacity:1;stroke:#000000;stroke-width:2.26771665;stroke-miterlimit:4;stroke-dasharray:none;stroke-opacity:1"><rect
           id="rect836"
           width="628.31488"
           height="244.45691"
           x="56.568542"
           y="611.38251"
           style="fill:#ffffff;fill-opacity:1;stroke:#000000;stroke-width:2.26771665;stroke-miterlimit:4;stroke-dasharray:none;stroke-opacity:1" /></flowRegion><flowPara
         id="flowPara838"
         style="font-style:normal;font-variant:normal;font-weight:normal;font-stretch:normal;font-size:64px;font-family:GelPenUprightHeavy;-inkscape-font-specification:GelPenUprightHeavy;text-align:center;text-anchor:middle;fill:#ffffff;fill-opacity:1;stroke:#000000;stroke-width:2.26771665;stroke-miterlimit:4;stroke-dasharray:none;stroke-opacity:1">INDUSTRIE-</flowPara><flowPara
         style="font-style:normal;font-variant:normal;font-weight:normal;font-stretch:normal;font-size:64px;font-family:GelPenUprightHeavy;-inkscape-font-specification:GelPenUprightHeavy;text-align:center;text-anchor:middle;fill:#ffffff;fill-opacity:1;stroke:#000000;stroke-width:2.26771665;stroke-miterlimit:4;stroke-dasharray:none;stroke-opacity:1"
         id="flowPara827">STANDARDS</flowPara></flowRoot>    <path
       style="fill:none;fill-rule:evenodd;stroke:#ff0000;stroke-width:0.96499997;stroke-linecap:round;stroke-linejoin:round;stroke-miterlimit:4;stroke-dasharray:none;stroke-opacity:1;paint-order:normal"
       inkscape:path-effect="#path-effect846"
       inkscape:original-d="m 44.999328,104.13867 c 1.439558,0.31812 2.120599,1.39319 3.474507,1.73725 1.377004,0.6574 2.315818,1.10807 3.474502,1.73726 1.121653,0.50888 2.7446,1.22076 4.283365,1.57372 0.938123,0.44009 2.436547,1.02841 3.565618,1.09897 1.813303,0.35361 2.264547,1.26645 4.178144,1.06908 2.281078,1.03292 4.484061,1.4259 6.962323,2.13763 2.207175,0.81123 4.777367,1.27712 6.935692,1.87141 1.655595,1.24731 4.02293,1.15294 5.612662,2.40543 1.76807,-0.13197 1.694193,0.90809 3.207234,0.80181 0.976359,1.2966 3.905401,1.86232 4.54358,2.13815 0.666372,0.66573 2.252192,1.30951 3.331092,1.89452 0.13182,0.92318 1.62865,0.89877 1.99068,1.45614 0.88247,0.23093 1.23324,0.95708 2.16178,1.19293 1.21679,0.95067 3.104413,1.19917 3.841193,2.18767 1.28012,0.0123 1.73899,1.60213 3.37509,1.5541 0.58073,1.1136 1.60948,0.88616 2.6727,1.60362 0.35959,0.95241 1.69272,1.04566 2.40542,1.87088 0.94069,0.13935 1.07804,0.8125 2.13816,1.06908 0.94659,0.8621 2.7171,1.69747 4.00904,1.87089 0.63227,0.59682 0.94016,0.57781 1.73724,1.06907 0.69757,0.33121 1.23903,0.75191 2.00453,1.06908 0.4564,0.5857 0.95435,0.48775 1.60362,0.93545 0.67137,0.2933 1.29177,0.73272 2.13816,1.06907 0.51596,0.33711 0.85991,0.84497 1.60361,0.93545 0.37501,0.55359 1.10844,0.53801 1.69549,0.99391 l -0.0919,0.0752 h 0.26727"
       id="path844"
       d="m 44.999328,104.13867 3.474507,1.73725 3.474502,1.73726 4.283365,1.57372 3.565618,1.09897 4.178144,1.06908 6.962323,2.13763 6.935692,1.87141 5.612662,2.40543 3.207234,0.80181 4.54358,2.13815 3.331092,1.89452 1.99068,1.45614 2.16178,1.19293 3.841193,2.18767 3.37509,1.5541 2.6727,1.60362 2.40542,1.87088 2.13816,1.06908 4.00904,1.87089 1.73724,1.06907 2.00453,1.06908 1.60362,0.93545 2.13816,1.06907 1.60361,0.93545 1.69549,0.99391 -0.0919,0.0752 h 0.26727"
       inkscape:connector-curvature="0" />
    <path
       style="fill:none;fill-rule:evenodd;stroke:#ff0000;stroke-width:0.96499997;stroke-linecap:round;stroke-linejoin:round;stroke-miterlimit:4;stroke-dasharray:none;stroke-opacity:1;paint-order:normal"
       inkscape:path-effect="#path-effect857"
       inkscape:original-d="m 135.70582,101.42828 c -1.26585,0.3712 -1.80294,1.03014 -3.20723,1.06908 -0.83468,0.58244 -1.97633,0.8275 -3.0736,1.33635 -1.24857,0.3378 -2.44599,1.13719 -3.74178,1.33634 -0.93294,0.81248 -2.24177,0.98535 -3.07359,1.60362 -1.50335,0.49116 -2.88116,1.58957 -4.40995,1.87089 -0.78372,0.81518 -2.01254,1.11811 -3.0736,1.60361 -1.26758,0.88793 -2.04832,1.02879 -3.34087,1.73726 -1.20439,0.72995 -2.49036,1.20369 -4.00904,1.87088 -0.73868,0.68903 -2.8066,1.0678 -2.61267,1.47589 -1.44411,0.47239 -2.41638,1.33195 -3.53453,1.59771 -1.0582,0.67697 -2.238646,1.3887 -3.474508,1.60362 -0.769149,0.75053 -1.974111,0.87676 -3.207234,1.60362 -1.23845,0.60697 -2.430834,1.12154 -3.741774,1.46998 -0.893392,0.55215 -2.408364,0.81351 -3.34087,1.20271 -0.994166,0.30712 -1.901385,0.70742 -2.939963,1.06908 -1.180055,0.24945 -1.892421,0.64227 -3.073601,0.93544 -0.868886,0.30101 -1.324033,0.67849 -2.271789,0.80181 -1.088025,0.45373 -2.31773,1.00304 -3.474506,1.20272 -0.902822,0.31917 -1.71147,0.5866 -2.672694,1.06907 -0.888601,0.43123 -1.730045,0.79548 -2.732013,1.18839 -0.691722,0.2055 -1.596706,0.95498 -2.479744,1.21704 -0.452754,0.38565 -1.043642,0.7542 -1.737251,1.06908 -0.713086,0.82579 -1.678454,1.04768 -2.405425,1.87088 -1.164422,0.62562 -1.882442,1.13686 -2.939966,1.60362 -0.797865,0.59348 -1.478638,1.01816 -2.53906,1.46998 -0.770571,0.5963 -1.938148,1.05711 -2.939966,1.33635 -1.102847,0.33616 -2.153128,0.91687 -3.161294,1.10668 -0.842511,0.31729 -2.056655,0.80649 -2.823039,0.91663 -0.999614,0.3484 -2.02663,0.55571 -2.83556,1.05029 -0.08391,0.0882 -1.138644,0.1818 -0.668173,0.26727"
       id="path855"
       d="m 135.70582,101.42828 -3.20723,1.06908 -3.0736,1.33635 -3.74178,1.33634 -3.07359,1.60362 -4.40995,1.87089 -3.0736,1.60361 c -1.10206,0.60098 -2.21597,1.18021 -3.34087,1.73726 -1.32166,0.65448 -2.65848,1.27833 -4.00904,1.87088 l -2.61267,1.47589 -3.53453,1.59771 -3.474508,1.60362 -3.207234,1.60362 -3.741774,1.46998 -3.34087,1.20271 -2.939963,1.06908 -3.073601,0.93544 -2.271789,0.80181 -3.474506,1.20272 c -0.896052,0.34329 -1.787077,0.69969 -2.672694,1.06907 -0.916604,0.3823 -1.827415,0.77849 -2.732013,1.18839 l -2.479744,1.21704 -1.737251,1.06908 -2.405425,1.87088 -2.939966,1.60362 -2.53906,1.46998 c -0.959697,0.4884 -1.940958,0.93443 -2.939966,1.33635 -1.036147,0.41686 -2.091383,0.78627 -3.161294,1.10668 l -2.823039,0.91663 -2.83556,1.05029 -0.668173,0.26727"
       inkscape:connector-curvature="0" />
  </g>
</svg>
